<svg id="Capa_1" enable-background="new 0 0 512.002 512.002" height="512" viewBox="0 0 512.002 512.002" width="512" xmlns="http://www.w3.org/2000/svg"><g><g><path d="m504.501 38.73v434.54c0 17.25-13.98 31.23-31.23 31.23h-434.54c-17.25 0-31.23-13.98-31.23-31.23v-434.54c0-17.25 13.98-31.23 31.23-31.23h434.54c17.25 0 31.23 13.98 31.23 31.23z" fill="#c8effe"/><path d="m473.271 7.5h-30.365c17.25 0 31.23 13.98 31.23 31.23v434.54c0 17.25-13.98 31.23-31.23 31.23h30.365c17.25 0 31.23-13.98 31.23-31.23v-434.54c0-17.25-13.98-31.23-31.23-31.23z" fill="#99e6fc"/><path d="m398.221 95.51-157.02 157.02 21.76 72.92-179.05 179.05h-45.18c-17.25 0-31.23-13.98-31.23-31.23v-434.54c0-17.25 13.98-31.23 31.23-31.23h359.49z" fill="#faf8f8"/><g><path d="m334.171 7.5c-5.98 8.95-13.78 18.99-23.81 29.26-53.46 54.44-133.56 79.76-211.96 80.88-35.54 0-67.4-5.91-90.9-12.06v-31.2c28.84 8.2 75.9 17.57 125.99 11.04 64.75-8.45 118.05-32.08 154.15-68.34 3.22-3.24 6.17-6.44 8.87-9.58h37.66z" fill="#6bd9e7"/></g><g><path d="m504.501 351.76v42.42l-311.24-311.24c-11.79-11.79-18.29-27.47-18.29-44.15v-31.29h30v31.29c0 8.67 3.38 16.81 9.5 22.94z" fill="#fd3581"/></g><path d="m474.136 321.395v42.419l30.365 30.366v-42.42z" fill="#fe0364"/><g><path d="m417.851 7.5v65.42c0 18.01-7.01 34.94-19.75 47.68l-62.38 62.38-21.21 21.21-52.93 52.93 24.08 58.25c3.08 7.47 1.37 16.06-4.35 21.78l-103.02 103.02-21.22 21.22-43.11 43.11h-56.56l186.19-186.19-24.07-58.25c-3.09-7.47-1.38-16.07 4.34-21.78l62.37-62.37 21.21-21.21 62.38-62.39c5.18-5.18 8.03-12.07 8.03-19.39v-65.42z" fill="#b9acac"/></g><g><path d="m242.621 504.5h-42.43l-43.12-43.11-14.14-14.14 21.22-21.22z" fill="#b9acac"/><path d="m474.011 363.69-140.81 140.81h-42.42l162.02-162.02z" fill="#4f66d0"/></g><path d="m504.501 85.68v216.68l-58.248-58.247c-6.254-6.254-6.255-16.393-.002-22.648 6.252-6.255 6.251-16.394-.002-22.648l-16.113-16.113c-6.254-6.254-6.255-16.395-.001-22.649z" fill="#bbec6c"/><path d="m390.726 7.5v65.42c0 18.01-7.01 34.94-19.75 47.68l-62.38 62.38-21.21 21.21-52.93 52.93 24.08 58.25c3.08 7.47 1.37 16.06-4.35 21.78l-103.02 103.02-21.22 21.22-43.11 43.11h27.125l43.11-43.11 21.22-21.22 103.02-103.02c5.72-5.72 7.43-14.31 4.35-21.78l-24.08-58.25 52.93-52.93 21.21-21.21 62.38-62.38c12.74-12.74 19.75-29.67 19.75-47.68v-65.42z" fill="#9e9797"/><path d="m474.136 116.049v155.946l30.365 30.365v-216.68z" fill="#a2e62e"/><path d="m217.631 372.55-39.805-39.805c7.317-11.446 11.58-25.026 11.58-39.59 0-40.654-33.074-73.729-73.728-73.729-14.565 0-28.145 4.263-39.591 11.58l-68.586-68.576v42.42l47.08 47.08c-7.971 11.775-12.631 25.966-12.631 41.225 0 40.654 33.074 73.728 73.729 73.728 15.258 0 29.448-4.66 41.224-12.63l39.509 39.517zm-101.953-34.667c-24.703 0-44.728-20.026-44.728-44.728s20.026-44.728 44.728-44.728 44.728 20.026 44.728 44.728-20.026 44.728-44.728 44.728z" fill="#b9acac"/></g><g><path d="m206.43 508.663c1.714-2.524 1.877-6.697-.938-9.469l-43.112-43.102c-1.627-1.855-6.948-3.562-10.612-.005l-43.11 43.11c-4.379 3.932-1.695 12.977 5.304 12.803h86.23c2.339-.208 4.353-.663 6.238-3.337zm-49.358-36.667 25.01 25.004h-50.014z"/><path d="m58.866 511.855c1.293-.33 2.491-.724 3.839-2.052l68.78-68.781c2.929-2.929 2.929-7.678 0-10.606-2.93-2.929-7.678-2.929-10.607 0l-66.583 66.584h-15.563c-13.085 0-23.73-10.645-23.73-23.73v-250.313l30.07 30.07c-6.965 12.208-10.62 25.961-10.62 40.133 0 44.785 36.439 81.22 81.229 81.22 14.175 0 27.925-3.654 40.124-10.618l15.86 15.867-25.892 25.893c-2.929 2.929-2.929 7.678 0 10.606 1.465 1.464 3.385 2.197 5.304 2.197s3.839-.732 5.304-2.197l31.194-31.195c2.879-2.879 2.921-7.513.14-10.452-.048-.05-.089-.104-.139-.153l-25.369-25.38c-2.542-2.543-6.531-2.923-9.51-.908-10.956 7.419-23.756 11.34-37.016 11.34-36.52 0-66.229-29.706-66.229-66.22 0-13.256 3.922-26.06 11.342-37.027 2.014-2.977 1.633-6.964-.908-9.506l-47.08-47.08c-3.968-4.259-12.824-1.956-12.804 5.308v268.415c0 21.356 17.374 38.73 38.73 38.73h18.67c.149-.002.667-.007 1.464-.145z"/><path d="m512.001 180.106c0-4.142-3.357-7.5-7.5-7.5s-7.5 3.358-7.5 7.5v104.147l-45.443-45.443c-3.32-3.32-3.32-8.722-.002-12.042 9.164-9.169 9.162-24.086-.004-33.253l-16.113-16.115c-1.608-1.608-2.494-3.746-2.494-6.021 0-2.274.886-4.413 2.494-6.021l61.562-61.57v41.166c0 4.142 3.357 7.5 7.5 7.5s7.5-3.358 7.5-7.5v-106.224c0-21.356-17.374-38.73-38.73-38.73h-55.42c-4.143 0-7.5 3.358-7.5 7.5v65.42c0 16.008-6.233 31.058-17.554 42.377l-62.378 62.378c-.001.001-.002.001-.002.002s-.001.002-.002.002l-74.138 74.138c-2.144 2.144-2.785 5.367-1.627 8.168l24.077 58.244c1.933 4.688.865 10.033-2.721 13.618l-103.02 103.02c-2.929 2.929-2.929 7.678 0 10.606l64.33 64.33c1.245 1.142 2.972 2.229 5.304 2.197h230.649c21.356 0 38.73-17.374 38.73-38.73v-293.164zm-15 195.968-152.468-152.47c-2.93-2.929-7.678-2.929-10.607 0s-2.929 7.678 0 10.606l108.268 108.27-39.817 39.817c-7.262-15.013-16.209-30.533-27.245-46.357-22.633-32.453-62.757-58.975-100.301-81.465l60.889-60.888 161.28 161.279v21.208zm-33.597-12.384-48.459 48.46c-1.799-5.01-3.767-10.096-5.946-15.26l43.802-43.802zm-59.999-237.787c14.152-14.152 21.946-32.969 21.946-52.983v-57.92h47.92c13.085 0 23.73 10.645 23.73 23.73v43.844l-72.17 72.178c-4.441 4.442-6.887 10.347-6.887 16.628 0 6.282 2.446 12.187 6.888 16.627l16.112 16.113c3.32 3.32 3.321 8.722.002 12.042-9.164 9.169-9.162 24.086.004 33.253l56.051 56.051v28.174l-150.673-150.66zm-116.791 216.551c7.884-7.882 10.231-19.635 5.979-29.949l-16.401-39.676c33.41 20.449 67.394 44.096 86.64 71.691 11.727 16.815 20.983 33.251 28.283 49.04l-34.432 34.432-25.996-25.997c-5.672-5.672-13.216-8.796-21.243-8.796h-21.91c-4.013 0-7.791-1.567-10.637-4.414l-18.307-18.307zm-40.886 154.546-56.83-56.83 59.083-59.083 18.307 18.307c5.68 5.679 13.224 8.807 21.243 8.807h21.91c4.02 0 7.797 1.563 10.636 4.403l25.997 25.997-58.4 58.4h-41.946zm63.16 0 88.608-88.608c2.094 5.272 3.979 10.46 5.661 15.546l-73.062 73.062zm99.116-56.696c5.615 21.38 7.847 40.604 8.324 56.696h-65.019zm65.267 56.696h-41.937c-.536-19.22-3.427-42.685-11.16-68.866l53.837-53.838 22.99 22.99v75.983c0 13.086-10.645 23.731-23.73 23.731z"/><path d="m115.678 240.926c-28.799 0-52.229 23.43-52.229 52.229s23.43 52.228 52.229 52.228 52.228-23.429 52.228-52.228-23.429-52.229-52.228-52.229zm0 89.457c-20.528 0-37.229-16.7-37.229-37.228s16.7-37.229 37.229-37.229c20.527 0 37.228 16.701 37.228 37.229s-16.701 37.228-37.228 37.228z"/><path d="m.039 163.172c.244 1.565.643 3.026 2.163 4.565l68.587 68.577c2.491 2.49 6.38 2.914 9.345 1.014 10.631-6.802 22.923-10.397 35.548-10.397 36.515 0 66.221 29.71 66.221 66.23 0 12.617-3.596 24.906-10.397 35.538-1.898 2.967-1.477 6.855 1.014 9.345l25.67 25.67c1.465 1.464 3.385 2.197 5.304 2.197 1.92 0 3.839-.732 5.304-2.197l40.1-40.1c2.143-2.144 2.785-5.366 1.628-8.167l-24.071-58.252c-1.938-4.687-.876-10.028 2.714-13.61l145.96-145.97c6.594-6.595 10.226-15.365 10.226-24.693v-65.422c0-4.142-3.357-7.5-7.5-7.5h-339.123c-21.357 0-38.731 17.374-38.731 38.73v123.698c0 .249.013.497.038.744zm234.708 153.375-31.256 31.256-16.266-16.266c6.348-11.776 9.677-24.924 9.677-38.377 0-44.791-36.436-81.23-81.221-81.23-13.46 0-26.611 3.329-38.387 9.676l-62.293-62.283v-44.161c25.767 6.075 51.49 9.401 76.682 9.904 2.636 5.82 5.653 11.665 9.134 17.513 22.032 36.987 66.253 65.965 114.453 94.387-5.16 7.558-6.276 17.267-2.682 25.958zm-219.746-232.376c18.333 4.684 41.101 8.997 66.207 10.44 1.209 5.035 2.683 10.127 4.438 15.257-23.098-.94-47.19-4.38-70.645-10.124zm80.722-69.171h71.748v23.79c0 10.958 2.522 21.524 7.259 31.06-13.44 3.487-27.586 6.224-42.208 8.133-13.281 1.731-26.345 2.318-38.924 2.091-4.022-24.412-1.845-46.975 2.125-65.074zm38.739 77.857c16.977-2.216 33.368-5.502 48.823-9.764 1.63 2.229 9.485 9.968 11.88 12.359-29.239 8.838-61.245 13.845-93.484 14.608-1.91-5.019-3.522-10.007-4.846-14.944 12.193.079 24.807-.588 37.627-2.259zm91.322 132.893c-47.571-27.942-91.392-56.119-112.078-90.847-1.994-3.349-3.811-6.698-5.496-10.043 34.294-1.367 68.2-7.346 98.906-17.459l68.507 68.506zm138.734-138.743-57.079 57.083-55.479-55.479c24.38-12.663 45.797-28.304 63.768-46.611 8.299-8.498 15.814-17.567 22.395-27h32.229v57.92c-.001 5.322-2.072 10.325-5.834 14.087zm-45.041-72.007c-4.468 5.699-9.307 11.221-14.468 16.506-17.877 18.211-39.457 33.653-64.201 45.955l-11.287-11.286c24.689-11.589 45.995-26.29 63.438-43.807 2.398-2.413 4.727-4.881 6.948-7.367h19.57zm-101.176 39.81c-3.771-4.49-5.83-10.099-5.83-16.02v-23.79h66.569c-16.733 15.969-37.127 29.335-60.739 39.81zm-20.83-39.81v23.79c-.172 10.802 5.221 22.683 13.804 30.351l85.557 85.557-10.603 10.603-87.665-87.664c-10.378-10.378-16.094-24.174-16.094-38.847v-23.79zm-158.739 0h41.664c-3.709 18.286-5.6 40.447-2.105 64.394-24.202-1.694-46.02-6.114-63.29-10.727v-29.937c0-13.085 10.646-23.73 23.731-23.73z"/><path d="m127.9 286.337h-4.722v-4.723c0-4.142-3.357-7.5-7.5-7.5s-7.5 3.358-7.5 7.5v4.723h-4.723c-4.143 0-7.5 3.358-7.5 7.5s3.357 7.5 7.5 7.5h4.723v4.722c0 4.142 3.357 7.5 7.5 7.5s7.5-3.358 7.5-7.5v-4.722h4.722c4.143 0 7.5-3.358 7.5-7.5s-3.358-7.5-7.5-7.5z"/><path d="m449.157 46.423h20.816c4.143 0 7.5-3.358 7.5-7.5s-3.357-7.5-7.5-7.5h-20.816c-4.143 0-7.5 3.358-7.5 7.5s3.357 7.5 7.5 7.5z"/></g></g></svg>