<svg xmlns="http://www.w3.org/2000/svg" height="512" viewBox="0 0 512.002 512.002" width="512" xmlns:v="https://vecta.io/nano"><path d="M206.43 508.663c1.714-2.524 1.877-6.697-.938-9.469l-43.112-43.102c-1.627-1.855-6.948-3.562-10.612-.005l-43.11 43.11c-4.379 3.932-1.695 12.977 5.304 12.803h86.23c2.339-.208 4.353-.663 6.238-3.337zm-49.358-36.667L182.082 497h-50.014zm-98.206 39.859c1.293-.33 2.491-.724 3.839-2.052l68.78-68.781a7.5 7.5 0 0 0-10.607-10.606L54.295 497H38.732c-13.085 0-23.73-10.645-23.73-23.73V222.957l30.07 30.07c-6.965 12.208-10.62 25.961-10.62 40.133 0 44.785 36.439 81.22 81.229 81.22 14.175 0 27.925-3.654 40.124-10.618l15.86 15.867-25.892 25.893a7.5 7.5 0 0 0 0 10.606 7.48 7.48 0 0 0 5.304 2.197c1.919 0 3.839-.732 5.304-2.197l31.194-31.195c2.879-2.879 2.921-7.513.14-10.452-.048-.05-.089-.104-.139-.153l-25.369-25.38c-2.542-2.543-6.531-2.923-9.51-.908-10.956 7.419-23.756 11.34-37.016 11.34-36.52 0-66.229-29.706-66.229-66.22a65.83 65.83 0 0 1 11.342-37.027 7.5 7.5 0 0 0-.908-9.506l-47.08-47.08c-3.968-4.259-12.824-1.956-12.804 5.308V473.27c0 21.356 17.374 38.73 38.73 38.73h18.67c.149-.002.667-.007 1.464-.145zm453.135-331.749a7.5 7.5 0 1 0-15 0v104.147l-45.443-45.443a8.53 8.53 0 0 1-.002-12.042c9.164-9.169 9.162-24.086-.004-33.253L435.439 177.4a8.46 8.46 0 0 1 0-12.042l61.562-61.57v41.166a7.5 7.5 0 1 0 15 0V38.73c0-21.356-17.374-38.73-38.73-38.73h-55.42a7.5 7.5 0 0 0-7.5 7.5v65.42c0 16.008-6.233 31.058-17.554 42.377l-62.378 62.378-74.142 74.142a7.5 7.5 0 0 0-1.627 8.168l24.077 58.244c1.933 4.688.865 10.033-2.721 13.618l-103.02 103.02a7.5 7.5 0 0 0 0 10.606l64.33 64.33c1.245 1.142 2.972 2.229 5.304 2.197h230.649c21.356 0 38.73-17.374 38.73-38.73V180.106zm-15 195.968l-152.468-152.47a7.5 7.5 0 0 0-10.607 10.606l108.268 108.27-39.817 39.817c-7.262-15.013-16.209-30.533-27.245-46.357-22.633-32.453-62.757-58.975-100.301-81.465l60.889-60.888L497 354.866v21.208zm-33.597-12.384l-48.459 48.46a299.87 299.87 0 0 0-5.946-15.26l43.802-43.802zm-59.999-237.787c14.152-14.152 21.946-32.969 21.946-52.983V15h47.92c13.085 0 23.73 10.645 23.73 23.73v43.844l-72.17 72.178a23.36 23.36 0 0 0-6.887 16.628 23.35 23.35 0 0 0 6.888 16.627l16.112 16.113a8.53 8.53 0 0 1 .002 12.042c-9.164 9.169-9.162 24.086.004 33.253l56.051 56.051v28.174L346.328 182.98zM286.614 342.454c7.884-7.882 10.231-19.635 5.979-29.949l-16.401-39.676c33.41 20.449 67.394 44.096 86.64 71.691 11.727 16.815 20.983 33.251 28.283 49.04l-34.432 34.432-25.996-25.997a29.84 29.84 0 0 0-21.243-8.796h-21.91c-4.013 0-7.791-1.567-10.637-4.414l-18.307-18.307zM245.728 497l-56.83-56.83 59.083-59.083 18.307 18.307a29.85 29.85 0 0 0 21.243 8.807h21.91c4.02 0 7.797 1.563 10.636 4.403l25.997 25.997-58.4 58.4h-41.946zm63.16 0l88.608-88.608c2.094 5.272 3.979 10.46 5.661 15.546L330.095 497zm99.116-56.696c5.615 21.38 7.847 40.604 8.324 56.696h-65.019zM473.271 497h-41.937c-.536-19.22-3.427-42.685-11.16-68.866l53.837-53.838 22.99 22.99v75.983c0 13.086-10.645 23.731-23.73 23.731zM115.678 240.926c-28.799 0-52.229 23.43-52.229 52.229s23.43 52.228 52.229 52.228 52.228-23.429 52.228-52.228-23.429-52.229-52.228-52.229zm0 89.457c-20.528 0-37.229-16.7-37.229-37.228s16.7-37.229 37.229-37.229 37.228 16.701 37.228 37.229-16.701 37.228-37.228 37.228z"/><path d="M.039 163.172c.244 1.565.643 3.026 2.163 4.565l68.587 68.577a7.5 7.5 0 0 0 9.345 1.014c10.631-6.802 22.923-10.397 35.548-10.397 36.515 0 66.221 29.71 66.221 66.23 0 12.617-3.596 24.906-10.397 35.538a7.5 7.5 0 0 0 1.014 9.345l25.67 25.67a7.48 7.48 0 0 0 5.304 2.197c1.92 0 3.839-.732 5.304-2.197l40.1-40.1a7.5 7.5 0 0 0 1.628-8.167l-24.071-58.252c-1.938-4.687-.876-10.028 2.714-13.61l145.96-145.97c6.594-6.595 10.226-15.365 10.226-24.693V7.5a7.5 7.5 0 0 0-7.5-7.5H38.732C17.375 0 .001 17.374.001 38.73v123.698c0 .249.013.497.038.744zm234.708 153.375l-31.256 31.256-16.266-16.266a80.76 80.76 0 0 0 9.677-38.377c0-44.791-36.436-81.23-81.221-81.23a80.79 80.79 0 0 0-38.387 9.676l-62.293-62.283v-44.161c25.767 6.075 51.49 9.401 76.682 9.904a176.72 176.72 0 0 0 9.134 17.513c22.032 36.987 66.253 65.965 114.453 94.387a27.38 27.38 0 0 0-2.682 25.958zM15.001 84.171c18.333 4.684 41.101 8.997 66.207 10.44a169.15 169.15 0 0 0 4.438 15.257c-23.098-.94-47.19-4.38-70.645-10.124zM95.723 15h71.748v23.79c0 10.958 2.522 21.524 7.259 31.06-13.44 3.487-27.586 6.224-42.208 8.133-13.281 1.731-26.345 2.318-38.924 2.091C89.576 55.662 91.753 33.099 95.723 15zm38.739 77.857c16.977-2.216 33.368-5.502 48.823-9.764 1.63 2.229 9.485 9.968 11.88 12.359-29.239 8.838-61.245 13.845-93.484 14.608a154.68 154.68 0 0 1-4.846-14.944c12.193.079 24.807-.588 37.627-2.259zm91.322 132.893c-47.571-27.942-91.392-56.119-112.078-90.847a162.36 162.36 0 0 1-5.496-10.043c34.294-1.367 68.2-7.346 98.906-17.459l68.507 68.506zM364.518 87.007l-57.079 57.083-55.479-55.479C276.34 75.948 297.757 60.307 315.728 42c8.299-8.498 15.814-17.567 22.395-27h32.229v57.92c-.001 5.322-2.072 10.325-5.834 14.087zM319.477 15a202.39 202.39 0 0 1-14.468 16.506c-17.877 18.211-39.457 33.653-64.201 45.955l-11.287-11.286c24.689-11.589 45.995-26.29 63.438-43.807a191.15 191.15 0 0 0 6.948-7.367h19.57zM218.301 54.81c-3.771-4.49-5.83-10.099-5.83-16.02V15h66.569c-16.733 15.969-37.127 29.335-60.739 39.81zM197.471 15v23.79c-.172 10.802 5.221 22.683 13.804 30.351l85.557 85.557-10.603 10.603-87.665-87.664C188.186 67.259 182.47 53.463 182.47 38.79V15zM38.732 15h41.664c-3.709 18.286-5.6 40.447-2.105 64.394-24.202-1.694-46.02-6.114-63.29-10.727V38.73C15.001 25.645 25.647 15 38.732 15zM127.9 286.337h-4.722v-4.723a7.5 7.5 0 1 0-15 0v4.723h-4.723a7.5 7.5 0 1 0 0 15h4.723v4.722a7.5 7.5 0 1 0 15 0v-4.722h4.722a7.5 7.5 0 1 0 0-15zM449.157 46.423h20.816a7.5 7.5 0 1 0 0-15h-20.816a7.5 7.5 0 1 0 0 15z"/></svg>